<?xml version="1.0" encoding="UTF-8"?>
<!-- Generator: Adobe Illustrator 27.2.0, SVG Export Plug-In . SVG Version: 6.00 Build 0)  -->
<svg xmlns="http://www.w3.org/2000/svg" xmlns:xlink="http://www.w3.org/1999/xlink" version="1.1" id="Layer_1" x="0px" y="0px" viewBox="0 0 175.52 32.38" style="enable-background:new 0 0 175.52 32.38;" xml:space="preserve">
<style type="text/css">
	.st0{fill:#FF5A00;}
	.st1{fill:#4D4D4D;}
</style>
<g>
	<path class="st0" d="M25.21,7.87c-0.22,1.17-0.45,2.35-0.68,3.5l-0.17,0.87c-0.07,0.36-0.42,0.66-0.79,0.66   c-0.18,0-0.33-0.07-0.43-0.19c-0.1-0.12-0.14-0.29-0.1-0.47l0.16-0.84c0.23-1.16,0.46-2.35,0.68-3.53   c0.14-0.76-0.19-1.42-0.86-1.67c-0.66-0.25-1.49-0.04-2.09,0.54c-0.35,0.34-0.57,0.74-0.67,1.23c-0.35,1.79-0.7,3.57-1.04,5.36   l-0.77,3.97c-0.3,1.53-1.24,2.66-2.71,3.26c-1.4,0.57-2.63,0.37-3.55-0.58c-0.66-0.67-1.8-0.61-2.61,0.14   c-0.4,0.37-0.65,0.84-0.71,1.33c-0.06,0.48,0.08,0.93,0.39,1.25c1.35,1.4,3.09,1.97,5.18,1.7c2.79-0.36,5.01-1.86,6.62-4.46   c0.4-0.64,0.69-1.37,0.91-2.28c0.09-0.35,0.43-0.63,0.78-0.63h0.02c0.18,0,0.33,0.08,0.43,0.21c0.1,0.13,0.12,0.3,0.08,0.48   c-0.27,1.07-0.62,1.94-1.1,2.73c-1.89,3.06-4.53,4.83-7.82,5.26c-0.4,0.05-0.79,0.08-1.16,0.08c-1.97,0-3.65-0.7-4.99-2.09   c-0.54-0.56-0.77-1.32-0.67-2.16c0.1-0.84,0.54-1.65,1.22-2.29c0.67-0.63,1.51-1,2.36-1.05c0.84-0.05,1.59,0.23,2.13,0.77   c0.59,0.61,1.31,0.73,2.2,0.37c0.96-0.39,1.49-1.04,1.69-2.05l0.88-4.51c0.31-1.61,0.63-3.22,0.94-4.82   c0.16-0.8,0.54-1.5,1.15-2.08c1.05-1,2.47-1.36,3.61-0.92C24.87,5.41,25.46,6.55,25.21,7.87L25.21,7.87z M11.02,0H5L3.86,5.74   C3.84,5.84,3.82,5.94,3.8,6.05L0.11,24.99c-0.65,3.34,1.53,6.05,4.87,6.05h18.94c3.34,0,6.57-2.71,7.22-6.05l3.68-18.94   C35.48,2.71,33.3,0,29.96,0H15.19H11.02L11.02,0z"></path>
	<path class="st1" d="M53.62,26.33h-5.4c-4.12,0-6.18-1.98-6.18-5.94c0-0.86,0.14-1.98,0.41-3.38c0.61-3.04,1.57-5.23,2.89-6.57   c1.32-1.34,3.43-2.01,6.33-2.01h6.65c0.81,0,1.43,0.2,1.86,0.61c0.43,0.41,0.64,0.95,0.64,1.62c0,0.27-0.03,0.54-0.1,0.81   l-2.87,13.47c-0.56,2.68-1.52,4.56-2.87,5.66c-1.35,1.09-3.38,1.64-6.08,1.64h-8.37l0.68-3.04h8.04   C51.46,29.2,52.92,28.25,53.62,26.33L53.62,26.33z M55.75,11.48H52c-0.92,0-1.71,0.13-2.35,0.41c-0.64,0.27-1.16,0.7-1.57,1.28   c-0.4,0.59-0.71,1.19-0.93,1.81c-0.21,0.62-0.42,1.41-0.62,2.38c-0.27,1.24-0.41,2.22-0.41,2.94c0,0.97,0.25,1.71,0.76,2.23   c0.51,0.52,1.38,0.78,2.62,0.78h4.76l2.3-10.8c0.02-0.07,0.03-0.17,0.03-0.3C56.59,11.71,56.31,11.48,55.75,11.48L55.75,11.48z    M59.69,26.33l2.36-11.14c0.54-2.52,1.47-4.28,2.79-5.27c1.32-0.99,3.28-1.49,5.89-1.49h2.67l-0.64,3.04H71.1   c-1.55,0-2.74,0.38-3.56,1.15c-0.82,0.77-1.4,1.97-1.74,3.61l-2.16,10.1H59.69L59.69,26.33z M90.54,8.44L87.37,23.3   c-0.22,1.08-0.61,1.86-1.15,2.33c-0.54,0.47-1.38,0.71-2.53,0.71h-6.21c-1.87,0-3.35-0.37-4.46-1.1c-1.1-0.73-1.65-1.87-1.65-3.43   c0-0.68,0.04-1.2,0.14-1.59L74,8.44h3.95l-2.3,10.74c-0.11,0.47-0.17,0.98-0.17,1.52c0,1.73,1.01,2.6,3.04,2.6h3.88   c0.7,0,1.11-0.34,1.25-1.01l2.94-13.84H90.54L90.54,8.44z M95.7,8.44h5.91c4.12,0,6.18,1.97,6.18,5.91c0,0.83-0.14,1.95-0.41,3.34   c-0.61,3.04-1.58,5.24-2.9,6.6c-1.33,1.36-3.44,2.04-6.35,2.04H92.8l-1.22,5.74h-3.92l4.36-20.6c0.23-1.06,0.61-1.83,1.15-2.31   C93.71,8.68,94.55,8.44,95.7,8.44L95.7,8.44z M95.77,12.36l-2.3,10.94h4.36c0.92,0,1.71-0.14,2.35-0.42   c0.64-0.28,1.16-0.72,1.57-1.32c0.41-0.6,0.71-1.2,0.93-1.82c0.21-0.62,0.42-1.41,0.62-2.38c0.27-1.24,0.41-2.21,0.41-2.9   c0-0.97-0.25-1.71-0.76-2.21c-0.51-0.51-1.38-0.76-2.62-0.76h-3.34C96.31,11.48,95.9,11.77,95.77,12.36L95.77,12.36z M119.63,8.24   c2.77,0,4.84,0.48,6.21,1.43c1.37,0.96,2.06,2.55,2.06,4.78c0,1.01-0.11,2.09-0.34,3.24c-0.38,1.87-0.87,3.38-1.45,4.54   c-0.59,1.16-1.36,2.05-2.31,2.68c-0.96,0.63-2,1.06-3.12,1.28c-1.13,0.23-2.54,0.34-4.25,0.34c-2.75,0-4.81-0.48-6.18-1.45   c-1.37-0.97-2.06-2.57-2.06-4.79c0-1.04,0.11-2.13,0.34-3.28c0.38-1.85,0.87-3.35,1.45-4.51c0.59-1.16,1.35-2.05,2.3-2.67   c0.95-0.62,1.98-1.04,3.11-1.27C116.5,8.35,117.92,8.24,119.63,8.24L119.63,8.24z M112.61,17.35c-0.22,1.13-0.34,1.99-0.34,2.6   c0,1.24,0.35,2.14,1.05,2.7c0.7,0.56,1.83,0.84,3.41,0.84c2,0,3.52-0.47,4.54-1.42c1.02-0.95,1.76-2.52,2.21-4.73   c0.22-1.08,0.34-1.94,0.34-2.57c0-1.24-0.35-2.13-1.06-2.68c-0.71-0.55-1.85-0.83-3.43-0.83c-2,0-3.51,0.46-4.51,1.38   C113.82,13.58,113.08,15.15,112.61,17.35L112.61,17.35z"></path>
	<path class="st0" d="M131.07,32.34l0.64-3.04c0.18,0.02,0.37,0.03,0.57,0.03c1.55,0,2.79-0.31,3.71-0.93   c0.92-0.62,1.56-1.73,1.92-3.33l3.55-16.65h3.95l-3.65,17.12c-0.36,1.73-1.01,3.12-1.96,4.15c-0.95,1.04-2.02,1.74-3.22,2.11   c-1.2,0.37-2.65,0.56-4.34,0.56C131.73,32.38,131.34,32.37,131.07,32.34L131.07,32.34z M145.96,5.84h-3.95l0.68-3.14h3.95   L145.96,5.84L145.96,5.84z M160,26.33h-9.59c-2.03,0-3.48-0.44-4.37-1.33c-0.89-0.89-1.33-2.2-1.33-3.93   c0-1.01,0.17-2.36,0.51-4.05c0.74-3.44,1.86-5.77,3.34-6.97c1.49-1.2,3.79-1.81,6.92-1.81c5.11,0,7.66,1.78,7.66,5.33   c0,0.77-0.07,1.46-0.2,2.09c-0.4,2.03-1.58,3.04-3.51,3.04h-10.4c-0.16,0.72-0.24,1.41-0.24,2.06c0,0.83,0.23,1.46,0.69,1.89   s1.27,0.64,2.41,0.64h8.75L160,26.33L160,26.33z M149.67,15.66h8.21c0.65,0,1.02-0.35,1.11-1.05c0.04-0.36,0.07-0.64,0.07-0.84   c0-1.67-1.29-2.5-3.88-2.5c-1.67,0-2.92,0.34-3.76,1.03C150.56,12.99,149.98,14.11,149.67,15.66L149.67,15.66z M171.71,26.33h-2.13   c-1.82,0-3.25-0.36-4.29-1.08c-1.04-0.72-1.55-1.8-1.55-3.24c0-0.5,0.06-1,0.17-1.52l1.92-9.02h-2.46l0.64-3.04h2.46l1.22-5.74   h3.95l-1.22,5.74h5.1l-0.64,3.04h-5.1l-1.76,8.21c-0.09,0.38-0.14,0.8-0.14,1.25c0,0.86,0.29,1.46,0.86,1.82   c0.57,0.36,1.45,0.54,2.62,0.54h0.98L171.71,26.33L171.71,26.33z"></path>
	<path class="st1" d="M24.2,14.94c-0.1,0.51-0.59,0.92-1.1,0.92c-0.51,0-0.84-0.41-0.74-0.92c0.1-0.51,0.59-0.92,1.1-0.92   C23.97,14.02,24.3,14.44,24.2,14.94L24.2,14.94z"></path>
</g>
</svg>
