<?xml version="1.0" encoding="UTF-8"?>
<svg xmlns="http://www.w3.org/2000/svg" xmlns:xlink="http://www.w3.org/1999/xlink" width="450.654" height="61.585" viewBox="0 0 450.654 61.585">
  <defs>
    <clipPath id="clip-path">
      <rect id="Retângulo_14" data-name="Retângulo 14" width="450.654" height="61.585" fill="none"></rect>
    </clipPath>
  </defs>
  <g id="Grupo_26" data-name="Grupo 26" transform="translate(0 0)">
    <g id="Grupo_25" data-name="Grupo 25" transform="translate(0 0)" clip-path="url(#clip-path)">
      <path id="Caminho_127" data-name="Caminho 127" d="M38.828,52.924a6.644,6.644,0,0,0,1.015.062c5.084,0,8.672-1.635,9.986-7.928l6.28-31.023h7l-6.458,31.9C54.615,56.007,48.1,58.648,39.785,58.648c-.658,0-1.376,0-2.094-.062ZM57.066,9.19l1.2-5.851h7l-1.2,5.851Z" transform="translate(33.153 2.936)" fill="#4d4d4d"></path>
      <path id="Caminho_128" data-name="Caminho 128" d="M61.542,42.556c-7.475,0-10.107-3.648-10.107-9.817a41.694,41.694,0,0,1,.9-7.55c2.69-13.214,7.415-16.36,18.178-16.36,7.774,0,13.574,2.329,13.574,9.943a18.626,18.626,0,0,1-.359,3.9c-.716,3.776-2.63,5.663-6.22,5.663H59.091a18.743,18.743,0,0,0-.419,3.84c0,2.895,1.2,4.718,5.5,4.718H79.661l-1.137,5.663ZM74.757,22.672a1.938,1.938,0,0,0,1.974-1.951,15.052,15.052,0,0,0,.12-1.573c0-3.46-3.171-4.656-6.877-4.656-5.981,0-8.61,2.517-9.748,8.18Z" transform="translate(45.242 7.765)" fill="#4d4d4d"></path>
      <path id="Caminho_129" data-name="Caminho 129" d="M80.924,47.386c-6.22,0-10.345-2.517-10.345-8.054a15.262,15.262,0,0,1,.3-2.833l3.41-16.8H69.921l1.137-5.663h4.364l2.154-10.7h7l-2.154,10.7H91.45L90.313,19.7h-9.03L78.174,34.99a11.376,11.376,0,0,0-.239,2.329c0,3.334,2.152,4.4,6.159,4.4h1.733l-1.137,5.663Z" transform="translate(61.502 2.935)" fill="#4d4d4d"></path>
      <path id="Caminho_130" data-name="Caminho 130" d="M99.192,47.386c-6.22,0-10.345-2.517-10.345-8.054a15.262,15.262,0,0,1,.3-2.833l3.408-16.8H88.189l1.135-5.663h4.366l2.152-10.7h7l-2.152,10.7h9.03L108.581,19.7H99.549L96.44,34.99a11.507,11.507,0,0,0-.239,2.329c0,3.334,2.152,4.4,6.159,4.4h1.733l-1.135,5.663Z" transform="translate(77.57 2.935)" fill="#ff5a00"></path>
      <path id="Caminho_131" data-name="Caminho 131" d="M108.826,42.556c-7.475,0-10.107-3.648-10.107-9.817a41.693,41.693,0,0,1,.9-7.55c2.69-13.214,7.415-16.36,18.178-16.36,7.774,0,13.574,2.329,13.574,9.943a18.627,18.627,0,0,1-.359,3.9c-.716,3.776-2.63,5.663-6.22,5.663H106.375a18.742,18.742,0,0,0-.419,3.84c0,2.895,1.2,4.718,5.5,4.718h15.488l-1.137,5.663Zm13.215-19.884a1.938,1.938,0,0,0,1.974-1.951,15.058,15.058,0,0,0,.12-1.573c0-3.46-3.171-4.656-6.877-4.656-5.981,0-8.61,2.517-9.748,8.18Z" transform="translate(86.832 7.765)" fill="#ff5a00"></path>
      <path id="Caminho_132" data-name="Caminho 132" d="M135.126,14.693c-7.355,0-9.03,4.658-10.285,10.949a26.566,26.566,0,0,0-.718,5.349c0,3.462,1.494,5.727,6.518,5.727H142.9l-1.137,5.661H128.368c-8.372,0-11.482-4.4-11.482-11.137a34.662,34.662,0,0,1,.718-6.231c2.034-10.695,5.562-15.982,16.924-15.982H147.8l-1.137,5.663Z" transform="translate(102.812 7.942)" fill="#ff5a00"></path>
      <path id="Caminho_133" data-name="Caminho 133" d="M137.97,14.693c.778-3.776,2.333-5.663,6.518-5.663h10.524c6.28,0,10.883,2.455,10.883,8.5a14.81,14.81,0,0,1-.239,2.895L161.172,42.38h-7l4.066-20.008a13.08,13.08,0,0,0,.359-2.833c0-3.208-1.675-4.846-5.441-4.846h-6.4a2.082,2.082,0,0,0-2.212,1.889l-5.2,25.8h-7Z" transform="translate(116.414 7.942)" fill="#ff5a00"></path>
      <path id="Caminho_134" data-name="Caminho 134" d="M186.458,20.407a33.342,33.342,0,0,1-.6,6.041c-2.692,13.967-8.372,16.486-19.734,16.486-9.389,0-14.591-3.021-14.591-11.64a34,34,0,0,1,.6-6.1c2.69-13.843,8.312-16.36,19.674-16.36,9.447,0,14.65,3.021,14.65,11.578M158.771,30.664c0,4.658,2.333,6.607,7.894,6.607,7.174,0,10.345-3.272,11.96-11.452a26.385,26.385,0,0,0,.6-4.782c0-4.658-2.393-6.545-7.954-6.545-7.174,0-10.225,3.146-11.9,11.326a26.855,26.855,0,0,0-.6,4.846" transform="translate(133.289 7.765)" fill="#ff5a00"></path>
      <path id="Caminho_135" data-name="Caminho 135" d="M179.376,3.339h7l-8.909,44.048h-7Z" transform="translate(149.941 2.936)" fill="#ff5a00"></path>
      <path id="Caminho_136" data-name="Caminho 136" d="M212.961,20.407a33.345,33.345,0,0,1-.6,6.041c-2.692,13.967-8.372,16.486-19.734,16.486-9.389,0-14.591-3.021-14.591-11.64a34,34,0,0,1,.6-6.1c2.69-13.843,8.312-16.36,19.674-16.36,9.447,0,14.65,3.021,14.65,11.578M185.274,30.664c0,4.658,2.333,6.607,7.894,6.607,7.174,0,10.345-3.272,11.96-11.452a26.382,26.382,0,0,0,.6-4.782c0-4.658-2.393-6.545-7.954-6.545-7.174,0-10.225,3.146-11.9,11.326a26.857,26.857,0,0,0-.6,4.846" transform="translate(156.6 7.765)" fill="#ff5a00"></path>
      <path id="Caminho_137" data-name="Caminho 137" d="M210.064,42.38c-7.894,0-10.943-4.4-10.943-11.075a35.773,35.773,0,0,1,.718-6.293C201.87,14.317,205.4,9.03,216.163,9.03h11.779c2.99,0,4.426,1.763,4.426,4.154a6.47,6.47,0,0,1-.18,1.509L227.106,39.8c-2.034,10.007-6.278,13.593-15.847,13.593h-14.83l1.2-5.663h14.232a7.667,7.667,0,0,0,7.774-5.349Zm6.7-27.686c-6.757,0-8.432,4.658-9.687,10.949a28.45,28.45,0,0,0-.718,5.475c0,3.4,1.376,5.6,5.981,5.6h8.432l4.066-20.136a1.828,1.828,0,0,0,.06-.568c0-.882-.479-1.321-1.5-1.321Z" transform="translate(172.777 7.942)" fill="#ff5a00"></path>
      <path id="Caminho_138" data-name="Caminho 138" d="M222.148,14.271h7l-6.757,33.35h-7Zm.838-4.406,1.374-6.795h7l-1.376,6.795Z" transform="translate(189.456 2.7)" fill="#ff5a00"></path>
      <path id="Caminho_139" data-name="Caminho 139" d="M247.753,9.03c4.964,0,7.176,3.334,7.176,7.362a11.442,11.442,0,0,1-.239,2.455l-3.648,17.869c-.778,3.712-2.333,5.663-6.518,5.663H229.157c-4.366,0-6.639-2.7-6.639-7.424a18.942,18.942,0,0,1,.241-3.586c1.316-6.293,4.005-9.755,9.986-9.755H247.1l.477-2.137a7.389,7.389,0,0,0,.18-1.511c0-2.141-1.2-3.272-3.648-3.272H228.619l1.135-5.663ZM234.3,27.277c-2.391,0-3.588,1.2-4.306,4.468a10.852,10.852,0,0,0-.3,2.2c0,1.825.838,2.769,2.692,2.769h9.866a2.081,2.081,0,0,0,2.212-1.887l1.5-7.552Z" transform="translate(195.725 7.942)" fill="#ff5a00"></path>
      <path id="Caminho_140" data-name="Caminho 140" d="M46.881,14.638c-.412,2.169-.842,4.378-1.261,6.513L45.3,22.775A1.562,1.562,0,0,1,43.841,24a1,1,0,0,1-.8-.359,1.033,1.033,0,0,1-.19-.866l.3-1.564c.421-2.15.855-4.374,1.269-6.56a2.631,2.631,0,0,0-1.6-3.109,3.8,3.8,0,0,0-3.9,1,4.133,4.133,0,0,0-1.241,2.28q-.97,4.982-1.94,9.966l-1.436,7.391a7.932,7.932,0,0,1-5.045,6.06c-2.605,1.054-4.887.684-6.6-1.073a3.474,3.474,0,0,0-4.853.267A4.136,4.136,0,0,0,16.5,39.894a2.8,2.8,0,0,0,.729,2.334A10.8,10.8,0,0,0,26.869,45.4c5.18-.665,9.325-3.458,12.319-8.3a14.52,14.52,0,0,0,1.7-4.24,1.557,1.557,0,0,1,1.447-1.165h.028a1,1,0,0,1,.8.393,1.064,1.064,0,0,1,.15.895,17.252,17.252,0,0,1-2.053,5.073c-3.524,5.7-8.417,8.986-14.542,9.776a17.16,17.16,0,0,1-2.162.141,12.444,12.444,0,0,1-9.285-3.883,4.807,4.807,0,0,1-1.246-4.019,7.408,7.408,0,0,1,6.652-6.206A5.013,5.013,0,0,1,24.63,35.3a3.421,3.421,0,0,0,4.092.692,4.8,4.8,0,0,0,3.146-3.819l1.63-8.385q.874-4.486,1.746-8.971a7.15,7.15,0,0,1,2.137-3.87A6.56,6.56,0,0,1,44.1,9.233a4.579,4.579,0,0,1,2.78,5.406M20.5,0H9.3L7.188,10.672c-.045.19-.088.382-.126.575L.212,46.48C-.994,52.692,3.062,57.726,9.276,57.726H44.507c6.212,0,12.227-5.034,13.433-11.246l6.849-35.233C66,5.035,61.94,0,55.728,0H20.5Z" transform="translate(0 -0.001)" fill="#ff5a00"></path>
      <path id="Caminho_141" data-name="Caminho 141" d="M25.271,15.6a2.014,2.014,0,0,1-1.889,1.581A1.265,1.265,0,0,1,22.108,15.6,2.015,2.015,0,0,1,24,14.024,1.268,1.268,0,0,1,25.271,15.6" transform="translate(19.42 12.335)" fill="#4d4d4d"></path>
    </g>
  </g>
</svg>
