<?xml version="1.0" encoding="UTF-8"?>
<svg xmlns="http://www.w3.org/2000/svg" width="381.681" height="62.408" viewBox="0 0 381.681 62.408">
  <g id="Artwork_7" data-name="Artwork 7" transform="translate(190.84 31.204)">
    <g id="Grupo_15" data-name="Grupo 15" transform="translate(-190.84 -31.204)">
      <path id="Caminho_37" data-name="Caminho 37" d="M58.014,9.132,59.275,3.15h7.372l-1.26,5.982Zm-19.221,44.7a7.05,7.05,0,0,0,1.073.065c5.355,0,9.138-1.672,10.522-8.1l6.618-31.705H64.38L57.573,46.69c-2.143,10.289-9.011,12.99-17.771,12.99-.694,0-1.45,0-2.206-.063l1.2-5.789Z" transform="translate(32.571 2.729)" fill="#4d4d4d"></path>
      <path id="Caminho_38" data-name="Caminho 38" d="M75.917,22.949A2.012,2.012,0,0,0,78,20.956a14.9,14.9,0,0,0,.127-1.607c0-3.539-3.341-4.759-7.249-4.759-6.3,0-9.074,2.572-10.27,8.359ZM61.99,43.271c-7.88,0-10.651-3.729-10.651-10.032a41.465,41.465,0,0,1,.944-7.719C55.12,12.016,60.1,8.8,71.441,8.8c8.193,0,14.305,2.378,14.305,10.16a18.447,18.447,0,0,1-.377,3.986c-.756,3.86-2.773,5.788-6.555,5.788H59.405a18.692,18.692,0,0,0-.44,3.923c0,2.96,1.26,4.824,5.8,4.824H81.085l-1.2,5.788Z" transform="translate(44.477 7.625)" fill="#4d4d4d"></path>
      <path id="Caminho_39" data-name="Caminho 39" d="M81.71,48.168c-6.555,0-10.9-2.572-10.9-8.231a15.1,15.1,0,0,1,.315-2.895l3.593-17.17h-4.6l1.2-5.789h4.6L78.18,3.15h7.374L83.285,14.083H92.8l-1.2,5.789H82.087L78.811,35.5a11.284,11.284,0,0,0-.254,2.38c0,3.408,2.269,4.5,6.493,4.5h1.827l-1.2,5.788Z" transform="translate(60.742 2.729)" fill="#4d4d4d"></path>
      <path id="Caminho_40" data-name="Caminho 40" d="M99.4,48.168C92.85,48.168,88.5,45.6,88.5,39.937a15.1,15.1,0,0,1,.315-2.895l3.593-17.17h-4.6l1.2-5.789h4.6L95.873,3.15h7.374L100.98,14.083h9.515l-1.2,5.789H99.781L96.5,35.5a11.4,11.4,0,0,0-.252,2.38c0,3.408,2.269,4.5,6.491,4.5h1.827l-1.2,5.788Z" transform="translate(76.07 2.729)" fill="#ff5a00"></path>
      <path id="Caminho_41" data-name="Caminho 41" d="M122.718,22.949a2.012,2.012,0,0,0,2.079-1.993,14.9,14.9,0,0,0,.127-1.607c0-3.539-3.341-4.759-7.249-4.759-6.3,0-9.074,2.572-10.27,8.359ZM108.791,43.271c-7.878,0-10.651-3.729-10.651-10.032a41.623,41.623,0,0,1,.944-7.719C101.921,12.016,106.9,8.8,118.242,8.8c8.193,0,14.307,2.378,14.307,10.16a18.576,18.576,0,0,1-.379,3.986c-.758,3.86-2.773,5.788-6.555,5.788h-19.41a18.692,18.692,0,0,0-.44,3.923c0,2.96,1.26,4.824,5.8,4.824h16.323l-1.2,5.788Z" transform="translate(85.022 7.625)" fill="#ff5a00"></path>
      <path id="Caminho_42" data-name="Caminho 42" d="M124.987,3.15h7.374L122.97,48.168H115.6L124.987,3.15Z" transform="translate(100.147 2.729)" fill="#ff5a00"></path>
      <path id="Caminho_43" data-name="Caminho 43" d="M147.37,22.949a2.012,2.012,0,0,0,2.079-1.993,14.877,14.877,0,0,0,.125-1.607c0-3.539-3.339-4.759-7.247-4.759-6.3,0-9.074,2.572-10.272,8.359ZM133.441,43.271c-7.878,0-10.651-3.729-10.651-10.032a41.482,41.482,0,0,1,.946-7.719c2.837-13.5,7.814-16.719,19.158-16.719,8.191,0,14.305,2.378,14.305,10.16a18.458,18.458,0,0,1-.379,3.986c-.756,3.86-2.771,5.788-6.553,5.788h-19.41a18.7,18.7,0,0,0-.442,3.923c0,2.96,1.26,4.824,5.8,4.824h16.321l-1.2,5.788Z" transform="translate(106.377 7.625)" fill="#ff5a00"></path>
      <path id="Caminho_44" data-name="Caminho 44" d="M160.45,14.8c-7.753,0-9.516,4.757-10.84,11.189a26.34,26.34,0,0,0-.758,5.467c0,3.537,1.577,5.853,6.87,5.853h12.919l-1.2,5.788H153.328c-8.822,0-12.1-4.5-12.1-11.383a34.35,34.35,0,0,1,.758-6.368c2.143-10.931,5.86-16.334,17.835-16.334h13.99l-1.2,5.789Z" transform="translate(122.35 7.804)" fill="#ff5a00"></path>
      <path id="Caminho_45" data-name="Caminho 45" d="M164.723,31.118c0,4.757,2.46,6.751,8.32,6.751,7.562,0,10.9-3.344,12.6-11.7a26.139,26.139,0,0,0,.631-4.888c0-4.759-2.521-6.687-8.382-6.687-7.562,0-10.776,3.216-12.542,11.575a26.756,26.756,0,0,0-.631,4.953ZM193.9,20.633a33.215,33.215,0,0,1-.631,6.176c-2.837,14.277-8.822,16.849-20.8,16.849-9.893,0-15.377-3.087-15.377-11.9a33.8,33.8,0,0,1,.629-6.237C160.565,11.374,166.489,8.8,178.461,8.8c9.959,0,15.442,3.085,15.442,11.831Z" transform="translate(136.101 7.625)" fill="#ff5a00"></path>
      <path id="Caminho_46" data-name="Caminho 46" d="M182.27,14.8c.821-3.86,2.46-5.789,6.87-5.789h28.3c6.616,0,11.469,2.508,11.469,8.682a15.23,15.23,0,0,1-.252,2.958l-4.727,22.445h-7.374l4.287-20.451a14.14,14.14,0,0,0,.377-3.022c0-3.281-1.764-4.823-5.735-4.823h-5.733l-5.924,28.3H196.45l5.924-28.3h-10.84a2.174,2.174,0,0,0-2.331,1.928L183.72,43.093h-7.374l5.924-28.3Z" transform="translate(152.775 7.804)" fill="#ff5a00"></path>
      <path id="Caminho_47" data-name="Caminho 47" d="M47.343,14.781c-.414,2.193-.851,4.421-1.271,6.579L45.751,23a1.576,1.576,0,0,1-1.476,1.236,1.009,1.009,0,0,1-.806-.362,1.046,1.046,0,0,1-.19-.875l.308-1.579c.424-2.172.862-4.418,1.28-6.625a2.656,2.656,0,0,0-1.614-3.139,3.84,3.84,0,0,0-3.934,1.006,4.178,4.178,0,0,0-1.252,2.3Q37.086,20,36.108,25.028l-1.452,7.463a8.006,8.006,0,0,1-5.1,6.12c-2.632,1.066-4.935.691-6.663-1.084A3.507,3.507,0,0,0,18,37.8a4.158,4.158,0,0,0-1.333,2.492,2.812,2.812,0,0,0,.737,2.357,10.906,10.906,0,0,0,9.733,3.2c5.231-.672,9.418-3.492,12.441-8.384a14.62,14.62,0,0,0,1.715-4.281A1.576,1.576,0,0,1,42.754,32h.028a1,1,0,0,1,.8.4,1.065,1.065,0,0,1,.151.9,17.437,17.437,0,0,1-2.072,5.125c-3.559,5.754-8.5,9.074-14.686,9.871a17.259,17.259,0,0,1-2.182.144,12.566,12.566,0,0,1-9.376-3.923,4.845,4.845,0,0,1-1.258-4.057,7.48,7.48,0,0,1,6.715-6.269,5.063,5.063,0,0,1,3.994,1.456,3.458,3.458,0,0,0,4.134.7,4.851,4.851,0,0,0,3.177-3.856l1.646-8.469q.879-4.53,1.764-9.059a7.206,7.206,0,0,1,2.157-3.91,6.622,6.622,0,0,1,6.786-1.728,4.619,4.619,0,0,1,2.807,5.457ZM56.277,0H20.7C14.425,0,8.35,5.086,7.131,11.359L.215,46.94C-1,53.213,3.092,58.3,9.365,58.3H44.947c6.273,0,12.348-5.086,13.566-11.359l6.915-35.582C66.649,5.086,62.552,0,56.277,0Z" transform="translate(0)" fill="#ff5a00"></path>
      <path id="Caminho_48" data-name="Caminho 48" d="M25.51,0H6.374L3.487,14.562,25.51,0Z" transform="translate(3.021)" fill="#ff5a00"></path>
      <path id="Caminho_49" data-name="Caminho 49" d="M25.874,15.867a2.194,2.194,0,0,1-2.057,1.723,1.379,1.379,0,0,1-1.389-1.723,2.2,2.2,0,0,1,2.057-1.723,1.379,1.379,0,0,1,1.389,1.723Z" transform="translate(19.403 12.253)" fill="#4d4d4d"></path>
    </g>
  </g>
</svg>
